<svg id="undraw_complete_task_u2c3_1_" data-name="undraw_complete_task_u2c3 (1)" xmlns="http://www.w3.org/2000/svg" width="892.276" height="697" viewBox="0 0 892.276 697">
  <ellipse id="Ellipse_1" data-name="Ellipse 1" cx="89.5" cy="15.108" rx="89.5" ry="15.108" transform="translate(71.74 655.731)" opacity="0.1"/>
  <path id="Path_1" data-name="Path 1" d="M165.483,467.737c6.474,8.635,13.459,18.517,20.352,29.286l.984-49.676.543.347a96.957,96.957,0,0,0-23.984-12.821l.543.3Z" transform="translate(-90.786 -87.406)" fill="#e6e6e6"/>
  <path id="Path_2" data-name="Path 2" d="M162.832,434.683c-8.878-3.028-17.492-4.032-25.366-2.628-.41.073-.812.157-1.214.242,2,2.146,13.66,14.823,28.093,33.927Z" transform="translate(-90.786 -87.406)" fill="#e6e6e6"/>
  <path id="Path_3" data-name="Path 3" d="M214.781,551.32q1.592,3.8,3.028,7.551l18.221-53.8.524.5q-3.228-6.07-6.842-11.8l-14.682,57.771Z" transform="translate(-90.786 -87.406)" fill="#e6e6e6"/>
  <path id="Path_4" data-name="Path 4" d="M204.141,528.633l9.522-56.4.541.433A152.423,152.423,0,0,0,187.915,448.1l-1,50.623Q196.534,513.9,204.141,528.633Z" transform="translate(-90.786 -87.406)" fill="#e6e6e6"/>
  <path id="Path_5" data-name="Path 5" d="M107.38,488.721l-.223-.688a127.268,127.268,0,0,0,5.029,25.154l87.554,9.031c-4.571-8.429-9.289-16.336-13.87-23.543Z" transform="translate(-90.786 -87.406)" fill="#e6e6e6"/>
  <path id="Path_6" data-name="Path 6" d="M112.624,514.562l-.231-.688q1.329,4.332,2.979,8.761l-.236-.687,88.613,7.877q-1.606-3.141-3.247-6.2Z" transform="translate(-90.786 -87.406)" fill="#e6e6e6"/>
  <path id="Path_7" data-name="Path 7" d="M214.154,549.853l14.56-57.29.533.47a182.015,182.015,0,0,0-14.531-19.771l-9.651,57.168Q210.083,540.28,214.154,549.853Z" transform="translate(-90.786 -87.406)" fill="#e6e6e6"/>
  <path id="Path_8" data-name="Path 8" d="M217.859,561.749l-86.232-8.3a176.087,176.087,0,0,0,15.286,17.943l-.214-.764,78.824,16.216a218.9,218.9,0,0,0-7.664-25.092Z" transform="translate(-90.786 -87.406)" fill="#e6e6e6"/>
  <path id="Path_9" data-name="Path 9" d="M135.54,432.843l.2-.435c-11.854,2.691-20.224,10.756-24.829,22.43l52.75,11.919C148.043,446.091,135.718,433.03,135.54,432.843Z" transform="translate(-90.786 -87.406)" fill="#e6e6e6"/>
  <path id="Path_10" data-name="Path 10" d="M219.407,563.141a217.52,217.52,0,0,1,6.894,22.641l20.535-51.5.5.5a86.225,86.225,0,0,0-6.556-20.752q-1.817-3.889-3.8-7.661L218.539,560.81C218.83,561.588,219.126,562.367,219.407,563.141Z" transform="translate(-90.786 -87.406)" fill="#e6e6e6"/>
  <path id="Path_11" data-name="Path 11" d="M184.954,497.237c-6.823-10.642-13.728-20.405-20.128-28.939l-53.96-12.193-.183-.681c-3.369,8.871-4.6,19.769-3.58,31.941Z" transform="translate(-90.786 -87.406)" fill="#e6e6e6"/>
  <path id="Path_12" data-name="Path 12" d="M130.58,552.01l86.725,8.351.017-.052a295.432,295.432,0,0,0-12.862-29.085l-88.831-7.9q2.262,5.991,5.113,12.109a105.868,105.868,0,0,0,9.838,16.572Z" transform="translate(-90.786 -87.406)" fill="#e6e6e6"/>
  <path id="Path_13" data-name="Path 13" d="M340.174,568.832l.2.614a96.959,96.959,0,0,0-10.3-25.172l.226.579-19.565,26.075c-.521,10.78-1.444,22.846-3,35.537Z" transform="translate(-90.786 -87.406)" fill="#e6e6e6"/>
  <path id="Path_14" data-name="Path 14" d="M329.777,543.778c-4.907-7.995-10.9-14.262-17.861-18.2-.362-.205-.726-.4-1.09-.588.172,2.929,1.066,20.129,0,44.048Z" transform="translate(-90.786 -87.406)" fill="#e6e6e6"/>
  <path id="Path_15" data-name="Path 15" d="M295.395,666.745q-1.2,3.943-2.484,7.748l48.348-29.815.085.719q1.386-6.734,2.259-13.455l-48.155,35.13Z" transform="translate(-90.786 -87.406)" fill="#e6e6e6"/>
  <path id="Path_16" data-name="Path 16" d="M301.671,642.485l43.31-37.369.14.678a152.419,152.419,0,0,0-4.58-35.687L307.48,608.456Q305.206,626.289,301.671,642.485Z" transform="translate(-90.786 -87.406)" fill="#e6e6e6"/>
  <path id="Path_17" data-name="Path 17" d="M345.131,606.584l-43.895,37.875q-2.419,10.787-5.389,20.756L343.6,630.378l.111.7a182.012,182.012,0,0,0,1.419-24.5Z" transform="translate(-90.786 -87.406)" fill="#e6e6e6"/>
  <path id="Path_18" data-name="Path 18" d="M260.415,734.484q.058-.886.111-1.821A151.476,151.476,0,0,0,280.4,702.2l-26.511-33.036q-.521-1.691-1.091-3.373l28.218,35.164a218.879,218.879,0,0,0,10.1-24.214L235.3,620.677q.261-.66.529-1.35l55.738,55.991.046-.029a295.464,295.464,0,0,0,8.644-30.6L244.913,589.9q.174-.763.344-1.534l55.351,54.791q.767-3.443,1.452-6.845l-55.187-56.195q.138-.8.269-1.615l55.231,56.239c1.856-9.407,3.265-18.507,4.334-26.979l-54.1-57.728.268-.672c-1.282,1.867-2.527,3.826-3.742,5.854a111.54,111.54,0,0,0-1.557-19.147L226.84,588.059a167.385,167.385,0,0,1,3.593,21.768c-.126,1.239-.239,2.486-.329,3.745l.681.684c.043.668.083,1.335.117,2l-.906-.91c-.043.73-.075,1.464-.107,2.2a157.627,157.627,0,0,0-4.047-29.351L147.6,572.1c3.941,4.046,8.072,7.978,12.294,11.77a95.653,95.653,0,0,0-25.28-4.32l.61.119,11.55,30.484c8.826,6.211,18.523,13.45,28.408,21.561l-14.219-46.89q.79.7,1.584,1.4l14.182,46.77q13.845,11.467,25.632,23.123L195.839,612.1q.685.478,1.364.947l6.588,44.492q7.816,7.817,14.647,15.663l-3.159-48.257q.672.421,1.32.823l3.192,48.767-.3-.131q2.689,3.123,5.214,6.245l.611-49.617q.705.413,1.3.76L226,682.265c.517.649,1.04,1.3,1.546,1.948a217.492,217.492,0,0,1,13.554,19.4l.295-4.514q.544,2.008,1.09,3.947l-.167,2.567c.607,1.009,1.2,2.018,1.777,3.026q.679,2.306,1.345,4.485-1.928-3.573-4.028-7.075l-79.391,8.877c41.744,21.958,93.544,32.368,96.845,33.017-.783-3.463-1.735-6.9-2.831-10.3.285-.3.567-.6.849-.9.135.406.274.813.4,1.218-.147.158-.292.319-.44.476l.513-.243q1.144,3.586,2.051,7.149c.242-1.929.565-4.86.847-8.566,14.3-7.157,51.326-28.075,70.127-60.869l-49.13,26.823a152.977,152.977,0,0,1-20.835,31.752Zm-16.279-77.47.122-1.863L245.5,656.7l-.122,1.863Z" transform="translate(-90.786 -87.406)" fill="#e6e6e6"/>
  <path id="Path_19" data-name="Path 19" d="M309.931,524.954l.434-.206c-10.846-5.488-22.437-4.615-33.429,1.439l33.025,42.825C311.111,543.132,309.948,525.211,309.931,524.954Z" transform="translate(-90.786 -87.406)" fill="#e6e6e6"/>
  <path id="Path_20" data-name="Path 20" d="M291.418,678.8a217.489,217.489,0,0,1-9.131,21.835l48.664-26.569.065.707a86.231,86.231,0,0,0,8.187-20.164q1.081-4.154,1.957-8.327l-48.924,30.17C291.964,677.235,291.7,678.024,291.418,678.8Z" transform="translate(-90.786 -87.406)" fill="#e6e6e6"/>
  <path id="Path_21" data-name="Path 21" d="M309.872,570.94l-33.783-43.808.294-.641c-8.253,4.684-16.152,12.292-23.13,22.317l53.664,57.258C308.45,593.518,309.358,581.595,309.872,570.94Z" transform="translate(-90.786 -87.406)" fill="#e6e6e6"/>
  <path id="Path_22" data-name="Path 22" d="M134.031,579.533c-9.379-.135-17.882,1.572-24.936,5.341-.367.2-.724.4-1.08.606,2.566,1.423,17.573,9.875,37.2,23.582Z" transform="translate(-90.786 -87.406)" fill="#e6e6e6"/>
  <path id="Path_23" data-name="Path 23" d="M175.721,633.268,98,648.064l-.425-.586a127.271,127.271,0,0,0,12.558,22.368l86.058-18.474C189.236,644.769,182.3,638.707,175.721,633.268Z" transform="translate(-90.786 -87.406)" fill="#e6e6e6"/>
  <path id="Path_24" data-name="Path 24" d="M202.352,657.368q-2.5-2.491-5-4.891l-86.376,18.542-.432-.583q2.6,3.709,5.541,7.412l-.437-.581Z" transform="translate(-90.786 -87.406)" fill="#e6e6e6"/>
  <path id="Path_25" data-name="Path 25" d="M240.683,704.862a218.9,218.9,0,0,0-15.044-21.494l-84.576,18.757a176.091,176.091,0,0,0,20.084,12.34l-.439-.66Z" transform="translate(-90.786 -87.406)" fill="#e6e6e6"/>
  <path id="Path_26" data-name="Path 26" d="M107.507,586.218l.059-.477c-10.442,6.223-15.909,16.481-16.68,29.006l53.851-4.969C123.492,594.953,107.733,586.341,107.507,586.218Z" transform="translate(-90.786 -87.406)" fill="#e6e6e6"/>
  <path id="Path_27" data-name="Path 27" d="M146.317,610.886,91.23,615.969l-.384-.591c-.462,9.478,1.736,20.223,6.468,31.484l77.09-14.676C164.626,624.174,155.041,617.023,146.317,610.886Z" transform="translate(-90.786 -87.406)" fill="#e6e6e6"/>
  <path id="Path_28" data-name="Path 28" d="M224.684,682.165a295.454,295.454,0,0,0-21.223-23.685l-86.921,19.948q4,5,8.606,9.936a105.866,105.866,0,0,0,14.478,12.72l85.059-18.864Z" transform="translate(-90.786 -87.406)" fill="#e6e6e6"/>
  <path id="Path_29" data-name="Path 29" d="M165.483,467.737c6.474,8.635,13.459,18.517,20.352,29.286l.984-49.676.543.347a96.957,96.957,0,0,0-23.984-12.821l.543.3Z" transform="translate(-90.786 -87.406)" fill="#40a355"/>
  <path id="Path_30" data-name="Path 30" d="M162.832,434.683c-8.878-3.028-17.492-4.032-25.366-2.628-.41.073-.812.157-1.214.242,2,2.146,13.66,14.823,28.093,33.927Z" transform="translate(-90.786 -87.406)" fill="#40a355"/>
  <path id="Path_31" data-name="Path 31" d="M214.781,551.32q1.592,3.8,3.028,7.551l18.221-53.8.524.5q-3.228-6.07-6.842-11.8l-14.682,57.771Z" transform="translate(-90.786 -87.406)" fill="#40a355"/>
  <path id="Path_32" data-name="Path 32" d="M204.141,528.633l9.522-56.4.541.433A152.423,152.423,0,0,0,187.915,448.1l-1,50.623Q196.534,513.9,204.141,528.633Z" transform="translate(-90.786 -87.406)" fill="#40a355"/>
  <path id="Path_33" data-name="Path 33" d="M107.38,488.721l-.223-.688a127.268,127.268,0,0,0,5.029,25.154l87.554,9.031c-4.571-8.429-9.289-16.336-13.87-23.543Z" transform="translate(-90.786 -87.406)" fill="#40a355"/>
  <path id="Path_34" data-name="Path 34" d="M112.624,514.562l-.231-.688q1.329,4.332,2.979,8.761l-.236-.687,88.613,7.877q-1.606-3.141-3.247-6.2Z" transform="translate(-90.786 -87.406)" fill="#40a355"/>
  <path id="Path_35" data-name="Path 35" d="M214.154,549.853l14.56-57.29.533.47a182.015,182.015,0,0,0-14.531-19.771l-9.651,57.168Q210.083,540.28,214.154,549.853Z" transform="translate(-90.786 -87.406)" fill="#40a355"/>
  <path id="Path_36" data-name="Path 36" d="M217.859,561.749l-86.232-8.3a176.087,176.087,0,0,0,15.286,17.943l-.214-.764,78.824,16.216a218.9,218.9,0,0,0-7.664-25.092Z" transform="translate(-90.786 -87.406)" fill="#40a355"/>
  <path id="Path_37" data-name="Path 37" d="M135.54,432.843l.2-.435c-11.854,2.691-20.224,10.756-24.829,22.43l52.75,11.919C148.043,446.091,135.718,433.03,135.54,432.843Z" transform="translate(-90.786 -87.406)" fill="#40a355"/>
  <path id="Path_38" data-name="Path 38" d="M219.407,563.141a217.52,217.52,0,0,1,6.894,22.641l20.535-51.5.5.5a86.225,86.225,0,0,0-6.556-20.752q-1.817-3.889-3.8-7.661L218.539,560.81C218.83,561.588,219.126,562.367,219.407,563.141Z" transform="translate(-90.786 -87.406)" fill="#40a355"/>
  <path id="Path_39" data-name="Path 39" d="M184.954,497.237c-6.823-10.642-13.728-20.405-20.128-28.939l-53.96-12.193-.183-.681c-3.369,8.871-4.6,19.769-3.58,31.941Z" transform="translate(-90.786 -87.406)" fill="#40a355"/>
  <path id="Path_40" data-name="Path 40" d="M130.58,552.01l86.725,8.351.017-.052a295.432,295.432,0,0,0-12.862-29.085l-88.831-7.9q2.262,5.991,5.113,12.109a105.868,105.868,0,0,0,9.838,16.572Z" transform="translate(-90.786 -87.406)" fill="#40a355"/>
  <path id="Path_41" data-name="Path 41" d="M340.174,568.832l.2.614a96.959,96.959,0,0,0-10.3-25.172l.226.579-19.565,26.075c-.521,10.78-1.444,22.846-3,35.537Z" transform="translate(-90.786 -87.406)" fill="#40a355"/>
  <path id="Path_42" data-name="Path 42" d="M329.777,543.778c-4.907-7.995-10.9-14.262-17.861-18.2-.362-.205-.726-.4-1.09-.588.172,2.929,1.066,20.129,0,44.048Z" transform="translate(-90.786 -87.406)" fill="#40a355"/>
  <path id="Path_43" data-name="Path 43" d="M295.395,666.745q-1.2,3.943-2.484,7.748l48.348-29.815.085.719q1.386-6.734,2.259-13.455l-48.155,35.13Z" transform="translate(-90.786 -87.406)" fill="#40a355"/>
  <path id="Path_44" data-name="Path 44" d="M301.671,642.485l43.31-37.369.14.678a152.419,152.419,0,0,0-4.58-35.687L307.48,608.456Q305.206,626.289,301.671,642.485Z" transform="translate(-90.786 -87.406)" fill="#40a355"/>
  <path id="Path_45" data-name="Path 45" d="M345.131,606.584l-43.895,37.875q-2.419,10.787-5.389,20.756L343.6,630.378l.111.7a182.012,182.012,0,0,0,1.419-24.5Z" transform="translate(-90.786 -87.406)" fill="#40a355"/>
  <path id="Path_46" data-name="Path 46" d="M260.415,734.484q.058-.886.111-1.821A151.476,151.476,0,0,0,280.4,702.2l-26.511-33.036q-.521-1.691-1.091-3.373l28.218,35.164a218.879,218.879,0,0,0,10.1-24.214L235.3,620.677q.261-.66.529-1.35l55.738,55.991.046-.029a295.464,295.464,0,0,0,8.644-30.6L244.913,589.9q.174-.763.344-1.534l55.351,54.791q.767-3.443,1.452-6.845l-55.187-56.195q.138-.8.269-1.615l55.231,56.239c1.856-9.407,3.265-18.507,4.334-26.979l-54.1-57.728.268-.672c-1.282,1.867-2.527,3.826-3.742,5.854a111.54,111.54,0,0,0-1.557-19.147L226.84,588.059a167.385,167.385,0,0,1,3.593,21.768c-.126,1.239-.239,2.486-.329,3.745l.681.684c.043.668.083,1.335.117,2l-.906-.91c-.043.73-.075,1.464-.107,2.2a157.627,157.627,0,0,0-4.047-29.351L147.6,572.1c3.941,4.046,8.072,7.978,12.294,11.77a95.653,95.653,0,0,0-25.28-4.32l.61.119,11.55,30.484c8.826,6.211,18.523,13.45,28.408,21.561l-14.219-46.89q.79.7,1.584,1.4l14.182,46.77q13.845,11.467,25.632,23.123L195.839,612.1q.685.478,1.364.947l6.588,44.492q7.816,7.817,14.647,15.663l-3.159-48.257q.672.421,1.32.823l3.192,48.767-.3-.131q2.689,3.123,5.214,6.245l.611-49.617q.705.413,1.3.76L226,682.265c.517.649,1.04,1.3,1.546,1.948a217.492,217.492,0,0,1,13.554,19.4l.295-4.514q.544,2.008,1.09,3.947l-.167,2.567c.607,1.009,1.2,2.018,1.777,3.026q.679,2.306,1.345,4.485-1.928-3.573-4.028-7.075l-79.391,8.877c41.744,21.958,93.544,32.368,96.845,33.017-.783-3.463-1.735-6.9-2.831-10.3.285-.3.567-.6.849-.9.135.406.274.813.4,1.218-.147.158-.292.319-.44.476l.513-.243q1.144,3.586,2.051,7.149c.242-1.929.565-4.86.847-8.566,14.3-7.157,51.326-28.075,70.127-60.869l-49.13,26.823a152.977,152.977,0,0,1-20.835,31.752Zm-16.279-77.47.122-1.863L245.5,656.7l-.122,1.863Z" transform="translate(-90.786 -87.406)" fill="#40a355"/>
  <path id="Path_47" data-name="Path 47" d="M309.931,524.954l.434-.206c-10.846-5.488-22.437-4.615-33.429,1.439l33.025,42.825C311.111,543.132,309.948,525.211,309.931,524.954Z" transform="translate(-90.786 -87.406)" fill="#40a355"/>
  <path id="Path_48" data-name="Path 48" d="M291.418,678.8a217.489,217.489,0,0,1-9.131,21.835l48.664-26.569.065.707a86.231,86.231,0,0,0,8.187-20.164q1.081-4.154,1.957-8.327l-48.924,30.17C291.964,677.235,291.7,678.024,291.418,678.8Z" transform="translate(-90.786 -87.406)" fill="#40a355"/>
  <path id="Path_49" data-name="Path 49" d="M309.872,570.94l-33.783-43.808.294-.641c-8.253,4.684-16.152,12.292-23.13,22.317l53.664,57.258C308.45,593.518,309.358,581.595,309.872,570.94Z" transform="translate(-90.786 -87.406)" fill="#40a355"/>
  <path id="Path_50" data-name="Path 50" d="M134.031,579.533c-9.379-.135-17.882,1.572-24.936,5.341-.367.2-.724.4-1.08.606,2.566,1.423,17.573,9.875,37.2,23.582Z" transform="translate(-90.786 -87.406)" fill="#40a355"/>
  <path id="Path_51" data-name="Path 51" d="M175.721,633.268,98,648.064l-.425-.586a127.271,127.271,0,0,0,12.558,22.368l86.058-18.474C189.236,644.769,182.3,638.707,175.721,633.268Z" transform="translate(-90.786 -87.406)" fill="#40a355"/>
  <path id="Path_52" data-name="Path 52" d="M202.352,657.368q-2.5-2.491-5-4.891l-86.376,18.542-.432-.583q2.6,3.709,5.541,7.412l-.437-.581Z" transform="translate(-90.786 -87.406)" fill="#40a355"/>
  <path id="Path_53" data-name="Path 53" d="M240.683,704.862a218.9,218.9,0,0,0-15.044-21.494l-84.576,18.757a176.091,176.091,0,0,0,20.084,12.34l-.439-.66Z" transform="translate(-90.786 -87.406)" fill="#40a355"/>
  <path id="Path_54" data-name="Path 54" d="M107.507,586.218l.059-.477c-10.442,6.223-15.909,16.481-16.68,29.006l53.851-4.969C123.492,594.953,107.733,586.341,107.507,586.218Z" transform="translate(-90.786 -87.406)" fill="#40a355"/>
  <path id="Path_55" data-name="Path 55" d="M146.317,610.886,91.23,615.969l-.384-.591c-.462,9.478,1.736,20.223,6.468,31.484l77.09-14.676C164.626,624.174,155.041,617.023,146.317,610.886Z" transform="translate(-90.786 -87.406)" fill="#40a355"/>
  <path id="Path_56" data-name="Path 56" d="M224.684,682.165a295.454,295.454,0,0,0-21.223-23.685l-86.921,19.948q4,5,8.606,9.936a105.866,105.866,0,0,0,14.478,12.72l85.059-18.864Z" transform="translate(-90.786 -87.406)" fill="#40a355"/>
  <rect id="Rectangle_1" data-name="Rectangle 1" width="15" height="110" transform="translate(479.276 415)" fill="#3f3d56"/>
  <rect id="Rectangle_2" data-name="Rectangle 2" width="15" height="110" transform="translate(656.276 415)" fill="#3f3d56"/>
  <rect id="Rectangle_3" data-name="Rectangle 3" width="546" height="25" transform="translate(302.276 398)" fill="#e6e6e6"/>
  <rect id="Rectangle_4" data-name="Rectangle 4" width="546" height="25" transform="translate(302.276 477)" fill="#e6e6e6"/>
  <rect id="Rectangle_5" data-name="Rectangle 5" width="546" height="15" transform="translate(302.276 431)" fill="#e6e6e6"/>
  <rect id="Rectangle_6" data-name="Rectangle 6" width="546" height="15" transform="translate(302.276 454)" fill="#e6e6e6"/>
  <rect id="Rectangle_7" data-name="Rectangle 7" width="17" height="132" transform="translate(300.776 393.5)" fill="#3f3d56"/>
  <rect id="Rectangle_8" data-name="Rectangle 8" width="17" height="132" transform="translate(831.276 393)" fill="#3f3d56"/>
  <rect id="Rectangle_9" data-name="Rectangle 9" width="17" height="137" transform="translate(254.276 560)" fill="#3f3d56"/>
  <rect id="Rectangle_10" data-name="Rectangle 10" width="17" height="73" transform="translate(310.276 555)" fill="#3f3d56"/>
  <rect id="Rectangle_11" data-name="Rectangle 11" width="17" height="73" transform="translate(827.276 555)" fill="#3f3d56"/>
  <rect id="Rectangle_12" data-name="Rectangle 12" width="17" height="137" transform="translate(875.276 560)" fill="#3f3d56"/>
  <rect id="Rectangle_13" data-name="Rectangle 13" width="638" height="18" transform="translate(254.276 560)" fill="#3f3d56"/>
  <path id="Path_57" data-name="Path 57" d="M300.276,520l-46,40h638l-44-40Z" fill="#e6e6e6"/>
  <path id="Path_58" data-name="Path 58" d="M290.542,115.146l-.13-.72-12.31-6.52H276.17l-.739-1.416H250.062l-5.883,1.416H222.512l-5.87,6.85-.06.42c-.38,2.45-8.87,60.06,13.53,78.39l9.34,4.34h6.04l-1.181-2.357,5.251,2.357h17l.3-.453,10.088-3.777.26-.3C278.122,192.3,299.562,166.246,290.542,115.146Z" transform="translate(-90.786 -87.406)" fill="#eba92b" opacity="0.1"/>
  <rect id="Rectangle_14" data-name="Rectangle 14" width="10" height="26" transform="translate(159.276 85)" fill="#e6e6e6"/>
  <rect id="Rectangle_15" data-name="Rectangle 15" width="18" height="500" transform="translate(154.776 144.5)" fill="#3f3d56"/>
  <rect id="Rectangle_16" data-name="Rectangle 16" width="27" height="17" transform="translate(150.276 136)" fill="#3f3d56"/>
  <path id="Path_59" data-name="Path 59" d="M140.276,105l17,18-7,13,14,3,13-3-8-14,16-17Z" fill="#3f3d56"/>
  <path id="Path_60" data-name="Path 60" d="M218.062,115.406l-8-8,6-6h76l6,7-9,7S241.062,113.406,218.062,115.406Z" transform="translate(-90.786 -87.406)" fill="#3f3d56"/>
  <path id="Path_61" data-name="Path 61" d="M290.542,115.146l-.13-.72-12.31-6.52-5.62-2.98-31.55-2.03-17.69,4.16-.73.85-5.87,6.85-.06.42c-.38,2.45-8.87,60.06,13.53,78.39l9.34,4.34,7.86,3.65-1.82-3.65-2.99-5.97c-3.13-18.22-10.01-66.09-5.62-76.09l18.14-5.85,16.1,5.98c1.11,7.19,8.29,57.6-4.29,75.57l-.27.39v5.63l10.39-3.89.26-.3C278.122,192.3,299.562,166.246,290.542,115.146Zm-15.4,76-5.58,2.1v-.38c13.8-20.59,4.78-75.88,4.39-78.24l-.14-.86-15.78-5.86-2.93-1.09-3.38,1.09-16.92,5.46-.29.51c-6.43,11.53,4.6,76.04,5.07,78.78l.04.22,1.19,2.38-8.95-4.13c-19.95-16.61-13.11-69.8-12.38-75.07l5.4-6.3,7.86-1.85,8.45-1.99,13.91.9,16.54,1.07.04.02,16.03,8.48C295.652,162.736,277.432,188.186,275.142,191.146Z" transform="translate(-90.786 -87.406)" fill="#3f3d56"/>
  <ellipse id="Ellipse_3" data-name="Ellipse 3" cx="27" cy="14" rx="27" ry="14" transform="translate(137.276)" fill="#3f3d56"/>
  <path id="Path_62" data-name="Path 62" d="M241.062,706.406l-16,51s25,14,59,0l-16-51Z" transform="translate(-90.786 -87.406)" fill="#3f3d56"/>
  <circle id="Ellipse_4" data-name="Ellipse 4" cx="8" cy="8" r="8" transform="translate(156.276 72)" fill="#eba92b"/>
  <path id="Path_88" data-name="Path 88" d="M854.452,160.793l.048-.008-6.992-40.876-38.663,12.283,5.785,36.561a9.935,9.935,0,1,0,3.992,4.906l.036-.006-6.208-39.236,32.515-10.33L850.49,156.4a9.914,9.914,0,1,0,3.961,4.393Z" transform="matrix(0.985, -0.174, 0.174, 0.985, -271.205, 178.598)"/>
  <path id="Path_89" data-name="Path 89" d="M1039.551,176.435l.048-.008-6.992-40.876-38.663,12.283,5.785,36.561a9.935,9.935,0,1,0,3.992,4.906l.036-.006-6.208-39.236,32.515-10.33,5.527,32.313a9.914,9.914,0,1,0,3.961,4.393Z" transform="matrix(0.985, -0.174, 0.174, 0.985, -271.205, 178.598)"/>
  <path id="Path_90" data-name="Path 90" d="M907.253,205.766l.028,0L902.3,174.28l-2.46.389,4.318,27.292a7.7,7.7,0,1,0,3.1,3.8Z" transform="matrix(0.985, -0.174, 0.174, 0.985, -271.205, 178.598)"/>
  <path id="Path_91" data-name="Path 91" d="M949.512,166.681a7.689,7.689,0,1,0-3.586,6.485l-4.318,27.292,2.46.389,4.981-31.481-.028,0a7.636,7.636,0,0,0,.491-2.681Z" transform="matrix(0.985, -0.174, 0.174, 0.985, -271.205, 178.598)"/>
</svg>
